<svg id="Layer_1" data-name="Layer 1" xmlns="http://www.w3.org/2000/svg" viewBox="0 0 45 45"><defs><style>.cls-1{fill:#231f20;}.cls-2{fill:#fff;}</style></defs><path class="cls-1" d="M22.5,0A22.5,22.5,0,1,0,45,22.5,22.525,22.525,0,0,0,22.5,0Z"/><polygon class="cls-2" points="25.669 36.779 25.669 28.272 24.68 28.272 24.68 34.906 19.93 28.27 19.082 28.254 19.082 36.783 20.071 36.783 20.071 30.045 24.799 36.774 25.669 36.779"/><rect class="cls-2" x="10.314" y="21.971" width="24.372" height="0.915"/><path class="cls-2" d="M19.5,15.417l-.535.775a5.309,5.309,0,0,0,3.506,1.221c2.039,0,3.463-1.164,3.463-2.831a2.107,2.107,0,0,0-1.293-1.988,11.425,11.425,0,0,0-2.041-.711l-.106-.029c-1.246-.35-2.128-.662-2.128-1.483,0-.795.912-1.418,2.077-1.418a3.517,3.517,0,0,1,2.3.857L25.29,9a4.207,4.207,0,0,0-2.751-.952c-1.846,0-3.185,1-3.185,2.378,0,1.51,1.691,1.981,3.05,2.359,1.169.326,2.488.694,2.488,1.859,0,1.113-.955,1.832-2.433,1.832A4.8,4.8,0,0,1,19.5,15.417Z"/></svg>