<svg id="Layer_1" data-name="Layer 1" xmlns="http://www.w3.org/2000/svg" viewBox="0 0 156.222 40"><defs><style>.cls-1{fill:#231f20;}</style></defs><path class="cls-1" d="M18.125,25.587c0-4.153-4.1-5.451-7.723-6.594-3.848-1.217-6.369-2.2-6.369-4.656,0-2.391,2.33-4,5.8-4a10.976,10.976,0,0,1,5.383,1.344l.131.077.846-1.132-.166-.1A12.9,12.9,0,0,0,9.862,9c-4.3,0-7.3,2.2-7.3,5.358,0,3.282,3.14,4.589,6.933,5.845l.474.157c3.415,1.125,6.641,2.187,6.641,5.256,0,3.128-2.839,5.15-7.233,5.15a13.163,13.163,0,0,1-6.768-1.992l-.152-.1-.7,1.239.135.087a14.406,14.406,0,0,0,7.513,2.182C14.539,32.188,18.125,29.474,18.125,25.587Z"/><path class="cls-1" d="M27.993,31.8l.15-.031L28,30.388l-.193.052a7.435,7.435,0,0,1-1.865.242c-1.645,0-2.445-.835-2.445-2.552V18.121h4.913V16.756H23.5V12l-1.471,1.058v3.7l-2.615.015v1.385h2.615V28.13c0,2.6,1.318,3.917,3.916,3.917A9.356,9.356,0,0,0,27.993,31.8Z"/><path class="cls-1" d="M41.892,29.235v2.529h1.436V16.756H41.857v10.78c-1.067,1.2-3.17,3.146-5.556,3.146-2.431,0-3.612-1.343-3.612-4.107V16.756H31.218v9.925c0,3.41,1.827,5.366,5.012,5.366C38.843,32.047,40.98,30.179,41.892,29.235Z"/><path class="cls-1" d="M54.328,32.047a7.662,7.662,0,0,0,5.238-2.1v1.816h1.471V9.176H59.566v9.256A7.669,7.669,0,0,0,54.4,16.473c-4.207,0-7.38,3.355-7.38,7.805C47.019,28.707,50.161,32.047,54.328,32.047Zm-5.8-7.769c0-3.732,2.456-6.44,5.838-6.44a6.964,6.964,0,0,1,5.2,2.367v7.9a6.777,6.777,0,0,1-5.2,2.576C50.981,30.682,48.525,27.989,48.525,24.278Z"/><rect class="cls-1" x="65.647" y="16.756" width="1.471" height="15.008"/><path class="cls-1" d="M66.347,9.828a1.248,1.248,0,1,0,1.231,1.265A1.235,1.235,0,0,0,66.347,9.828Z"/><path class="cls-1" d="M78.224,16.473c-4.187,0-7.345,3.355-7.345,7.805,0,4.429,3.127,7.769,7.274,7.769a7.539,7.539,0,0,0,7.381-7.84C85.534,19.8,82.391,16.473,78.224,16.473Zm5.8,7.769c0,3.732-2.456,6.44-5.839,6.44-3.362,0-5.8-2.708-5.8-6.44,0-3.71,2.441-6.4,5.8-6.4C81.571,17.838,84.027,20.532,84.027,24.242Z"/><polygon class="cls-1" points="97.118 12.057 110.684 31.686 110.735 31.759 112.011 31.759 112.011 9.176 110.505 9.176 110.505 28.881 96.946 9.249 96.894 9.176 95.682 9.176 95.682 31.764 97.118 31.764 97.118 12.057"/><path class="cls-1" d="M123.155,16.473c-4.051,0-6.992,3.283-6.992,7.805,0,4.72,3.091,7.769,7.875,7.769a11.369,11.369,0,0,0,4.644-1.03L128.8,31V30.58l-.072.036c-.062-.191-.162-.511-.254-.8l-.058-.187-.176.083a10.066,10.066,0,0,1-4.2.974c-3.894,0-6.263-2.34-6.365-6.269h11.943v-.63C129.616,19.343,127.08,16.473,123.155,16.473Zm-5.431,6.61c.389-3.241,2.429-5.245,5.36-5.245s4.8,1.956,5.017,5.245Z"/><path class="cls-1" d="M138.142,16.473a12.262,12.262,0,0,0-4.27.9l-.145.06.424,1.318.172-.077a10.292,10.292,0,0,1,3.749-.833c3.193,0,4.5,1.272,4.5,4.389V23.75a9.431,9.431,0,0,0-4.354-1.127c-3.451,0-5.86,1.96-5.86,4.765,0,2.787,2.3,4.659,5.719,4.659A7.2,7.2,0,0,0,142.6,30.4v1.366h1.435V22.086C144.038,18.309,142.11,16.473,138.142,16.473Zm4.425,8.679v3.622a5.753,5.753,0,0,1-4.425,1.943c-2.726,0-4.353-1.245-4.353-3.329,0-2.4,2.24-3.47,4.46-3.47A8.012,8.012,0,0,1,142.567,25.152Z"/><path class="cls-1" d="M155.81,18.121V16.756H150.9V12l-1.471,1.058v3.7l-2.615.015v1.385h2.615V28.13c0,2.6,1.317,3.917,3.916,3.917a9.454,9.454,0,0,0,2.051-.251l.149-.032-.142-1.376-.193.052a7.435,7.435,0,0,1-1.865.242c-1.645,0-2.445-.835-2.445-2.552V18.121Z"/></svg>